<?xml version="1.0" encoding="UTF-8"?>
<svg width="124px" height="28px" viewBox="0 0 124 28" version="1.1" xmlns="http://www.w3.org/2000/svg" xmlns:xlink="http://www.w3.org/1999/xlink">
    <!-- Generator: sketchtool 51.3 (57544) - http://www.bohemiancoding.com/sketch -->
    <title>4895FC8F-067C-4619-9CC2-F1ACE6907950</title>
    <desc>Created with sketchtool.</desc>
    <defs></defs>
    <g id="Design" stroke="none" stroke-width="1" fill="none" fill-rule="evenodd">
        <g id="1a-Home" transform="translate(-967.000000, -751.000000)" fill="#FFFFFF">
            <g id="Cover" transform="translate(-195.000000, -187.000000)">
                <g id="Logo" transform="translate(195.000000, 848.000000)">
                    <path d="M975.040671,94.7831392 L975.040671,109.130831 C975.040671,110.481913 975.453268,111.144512 977.200276,111.144512 L979.294597,111.144512 C981.675298,111.144512 982.786872,110.23085 983.612066,108.501017 L984.373716,106.834165 L985.580171,107.179269 L984.62789,112.654342 L967.644393,112.654342 L967.644393,111.459419 C970.628322,110.829605 970.786745,110.734701 970.786745,109.571701 L970.786745,94.7831392 C970.786745,93.5873544 970.627451,93.5252357 967.644393,92.9273433 L967.644393,91.7306958 L978.278773,91.7306958 L978.278773,92.9264806 C975.199094,93.524373 975.040671,93.5873544 975.040671,94.7831392 Z M998.851166,101.139089 C998.851166,103.058729 997.740462,105.292414 990.374651,105.63838 C990.565281,108.59592 992.089452,110.54662 994.660783,110.54662 C996.089204,110.54662 997.390538,109.982375 998.564785,108.878043 L999.231556,109.666605 C997.898015,111.616442 995.707944,112.969249 993.167949,112.969249 C989.073317,112.969249 986.088518,110.043631 986.088518,105.480495 C986.088518,101.044186 989.70788,97.5517348 993.961806,97.5517348 C997.454082,97.5517348 998.851166,99.6594565 998.851166,101.139089 Z M993.771176,98.810501 C991.454018,98.810501 990.437324,101.265052 990.342444,104.411536 C995.391097,103.655759 995.581727,101.736119 995.581727,100.635238 C995.581727,99.345412 994.533697,98.810501 993.771176,98.810501 Z M1005.20028,112.969249 C1001.51825,112.969249 1000.1525,111.491342 1000.1525,109.981512 C1000.1525,108.815061 1001.32762,107.777162 1002.81958,108.091206 L1003.23218,108.595058 C1002.2799,110.23085 1002.97801,111.710483 1005.39004,111.710483 C1006.91334,111.710483 1007.99271,110.891724 1007.99271,109.634683 C1007.99271,108.15505 1006.75492,107.557158 1004.85123,106.802243 C1002.15194,105.732421 1000.5651,104.505577 1000.5651,102.051026 C1000.5651,99.6275344 1002.72383,97.5517348 1005.99327,97.5517348 C1009.48467,97.5517348 1011.04105,99.187527 1011.04105,100.603315 C1011.04105,101.736119 1010.02523,102.837 1008.24688,102.459974 L1007.89783,101.956985 C1008.9772,100.509275 1008.43751,98.810501 1006.05681,98.810501 C1004.62752,98.810501 1003.67524,99.6913786 1003.67524,100.855241 C1003.67524,102.23997 1005.16721,102.900844 1006.88114,103.498737 C1009.54822,104.411536 1011.73916,105.637518 1011.73916,108.343995 C1011.74003,111.082394 1009.77193,112.969249 1005.20028,112.969249 Z M1014.9468,91.7306958 L1031.89983,91.7306958 L1032.05825,97.2368275 L1030.91447,97.2368275 L1030.34432,95.5069945 C1029.7733,93.7762988 1028.53377,93.2413878 1026.75716,93.2413878 L1022.34394,93.2413878 L1022.34394,101.045048 L1026.69275,101.045048 C1027.61456,101.045048 1027.67724,100.888026 1028.3118,98.1815493 L1029.51825,98.1815493 L1029.51825,105.732421 L1028.3118,105.732421 C1027.67724,103.121711 1027.61369,102.743822 1026.69275,102.743822 L1022.34394,102.743822 L1022.34394,109.131694 C1022.34394,110.482776 1022.75741,111.145375 1024.50268,111.145375 L1026.59787,111.145375 C1028.97857,111.145375 1030.09015,110.231713 1030.91447,108.50188 L1031.67699,106.835028 L1032.88344,107.180132 L1031.93203,112.655204 L1014.9468,112.655204 L1014.9468,111.460282 C1017.93072,110.830468 1018.09002,110.735564 1018.09002,109.572564 L1018.09002,94.7831392 C1018.09002,93.5873544 1017.93072,93.5252357 1014.9468,92.9273433 L1014.9468,91.7306958 Z M1045.9316,108.878043 L1046.59837,109.666605 C1045.2657,111.616442 1043.07476,112.969249 1040.53477,112.969249 C1036.44013,112.969249 1033.4562,110.043631 1033.4562,105.480495 C1033.4562,101.044186 1036.75698,97.5517348 1041.07445,97.5517348 C1044.47097,97.5517348 1045.99427,99.3764713 1045.99427,100.823319 C1045.99427,102.019104 1045.23349,103.245948 1043.04168,102.869785 L1042.69263,102.334011 C1043.26452,100.918223 1043.51869,98.7785789 1041.13799,98.7785789 C1038.69375,98.7785789 1037.71013,101.547174 1037.71013,104.914525 C1037.71013,108.249091 1039.29785,110.545757 1042.0276,110.545757 C1043.45428,110.54662 1044.75648,109.982375 1045.9316,108.878043 Z M1057.04299,110.955568 L1057.04299,102.837 C1057.04299,101.138226 1056.40843,100.382449 1055.17064,100.382449 C1053.26608,100.382449 1051.64616,103.339989 1051.64616,107.809084 L1051.64616,112.653479 L1047.6464,112.653479 L1047.6464,93.0524435 C1047.6464,91.887718 1047.55152,91.8255993 1045.61563,91.1966476 L1045.61563,90 L1051.80458,90 C1051.64529,91.2587663 1051.64529,101.075245 1051.64529,101.736119 L1051.70883,101.736119 C1052.72552,99.2505084 1054.56654,97.5517348 1057.13787,97.5517348 C1059.42282,97.5517348 1061.04187,99.0934862 1061.04187,102.082085 L1061.04187,109.445739 C1061.04187,110.829605 1061.26384,110.955568 1063.39037,111.459419 L1063.39037,112.654342 C1061.58156,112.843286 1060.15314,112.969249 1059.2644,112.969249 C1057.80551,112.969249 1057.04299,112.339434 1057.04299,110.955568 Z M1070.5995,111.710483 C1073.26658,111.710483 1073.99602,108.62698 1073.99602,105.480495 C1073.99602,102.050163 1073.48768,98.8096383 1070.5995,98.8096383 C1067.93416,98.8096383 1067.20297,101.893141 1067.20297,105.040488 C1067.2021,108.47082 1067.77312,111.710483 1070.5995,111.710483 Z M1070.28265,112.969249 C1065.96431,112.969249 1062.94905,110.136809 1062.94905,105.731559 C1062.94905,100.823319 1066.06006,97.5517348 1070.91634,97.5517348 C1075.23468,97.5517348 1078.24908,100.383312 1078.24908,104.788562 C1078.24908,109.696802 1075.13893,112.969249 1070.28265,112.969249 Z M1084.06025,112.969249 C1080.37822,112.969249 1079.01247,111.491342 1079.01247,109.981512 C1079.01247,108.815061 1080.18672,107.777162 1081.67955,108.091206 L1082.09215,108.595058 C1081.13987,110.23085 1081.83797,111.710483 1084.25001,111.710483 C1085.77331,111.710483 1086.85268,110.891724 1086.85268,109.634683 C1086.85268,108.15505 1085.61402,107.557158 1083.7112,106.802243 C1081.01191,105.732421 1079.42507,104.505577 1079.42507,102.051026 C1079.42507,99.6275344 1081.5838,97.5517348 1084.85324,97.5517348 C1088.34552,97.5517348 1089.90102,99.187527 1089.90102,100.603315 C1089.90102,101.736119 1088.88433,102.837 1087.10772,102.459974 L1086.7578,101.956985 C1087.83804,100.509275 1087.29748,98.810501 1084.91678,98.810501 C1083.48836,98.810501 1082.53608,99.6913786 1082.53608,100.855241 C1082.53608,102.23997 1084.02805,102.900844 1085.74372,103.498737 C1088.40906,104.411536 1090.6,105.637518 1090.6,108.343995 C1090.59913,111.082394 1088.6319,112.969249 1084.06025,112.969249 Z M967.6,116.474641 L1090.56779,116.474641 L1090.56779,118 L967.6,118 L967.6,116.474641 Z" id="Les-Echos"></path>
                </g>
            </g>
        </g>
    </g>
</svg>