<?xml version="1.0" encoding="UTF-8"?>
<svg width="117px" height="30px" viewBox="0 0 117 30" version="1.1" xmlns="http://www.w3.org/2000/svg" xmlns:xlink="http://www.w3.org/1999/xlink">
    <!-- Generator: sketchtool 51.3 (57544) - http://www.bohemiancoding.com/sketch -->
    <title>E125699A-5CE0-4166-BB9A-D0290BAEAB3B</title>
    <desc>Created with sketchtool.</desc>
    <defs></defs>
    <g id="Design" stroke="none" stroke-width="1" fill="none" fill-rule="evenodd">
        <g id="1a-Home" transform="translate(-524.000000, -750.000000)" fill="#FFFFFF">
            <g id="Cover" transform="translate(-195.000000, -187.000000)">
                <g id="Logo" transform="translate(195.000000, 848.000000)">
                    <path d="M578.333056,117.9612 L578.333056,117.509211 L577.684791,117.455083 C576.189857,117.329089 575.780168,117.179242 575.387652,116.615632 C574.818811,115.798506 574.694923,114.290859 574.694923,108.181676 L574.694923,103.41378 L574.90222,103.193291 C575.164102,102.91592 575.981639,102.528152 576.559987,102.407969 C577.734162,102.163932 579.235229,102.374941 580.409404,102.948948 C580.74611,103.11378 581.035897,103.234575 581.053376,103.217144 C581.087721,103.182893 583.015956,98.1015409 583.075754,97.8868617 C583.103046,97.7896139 582.991731,97.7049043 582.667598,97.5755463 C581.973336,97.2987876 581.371375,97.2036804 580.594623,97.2486346 C578.517661,97.3685124 576.674369,98.744661 575.346561,101.166377 C575.126077,101.568518 574.897927,101.897876 574.839356,101.898182 C574.754107,101.898794 574.744294,101.436713 574.789985,99.6003196 L574.847329,97.3015399 L574.645552,97.3492464 C574.53485,97.3752403 572.863283,97.7128554 570.931368,98.099706 C566.788178,98.9287591 566.212283,99.0495544 566.113234,99.1104107 C566.072449,99.135793 566.039024,99.2847229 566.039024,99.4416038 C566.039024,99.7565889 566.002226,99.7385461 566.943651,99.8896166 C568.237727,100.096956 568.694947,100.726621 568.887832,102.566073 C569.139594,104.964853 569.039012,114.315629 568.747691,115.592389 C568.598965,116.245295 568.214115,116.873737 567.827119,117.097284 C567.683605,117.179853 567.231905,117.312881 566.823443,117.392392 L566.080729,117.536734 L566.055583,117.974961 L566.030131,118.412882 L572.181593,118.412882 L578.333056,118.412882 L578.333056,117.9612 Z M539.778167,117.954166 C539.778167,117.701566 539.755781,117.49545 539.727876,117.49545 C539.329533,117.49545 537.472442,117.096061 537.174068,116.946214 C536.112129,116.41288 535.621177,115.145294 535.430745,112.444985 C535.295204,110.52541 535.160584,104.885953 535.24798,104.798797 C535.327403,104.719287 538.863114,104.85996 539.276482,104.958736 C540.419072,105.23152 541.29978,106.352316 541.740747,108.094826 L541.935165,108.863023 L542.445743,108.887794 L542.95632,108.912564 L542.95632,104.071273 L542.95632,99.2299828 L542.412624,99.2299828 C541.9045,99.2299828 541.868928,99.2422152 541.868928,99.4177506 C541.868928,99.7336531 541.551849,100.733654 541.251636,101.364542 C540.78123,102.352311 540.118859,102.948336 539.276482,103.141914 C539.069492,103.189621 538.092188,103.265768 537.105071,103.311639 C535.712866,103.37586 535.294898,103.371578 535.24246,103.292985 C535.145558,103.147725 535.366655,92.1666708 535.47705,91.6562726 L535.518448,91.4639176 L538.589273,91.4896057 L541.660098,91.514988 L542.374599,91.77034 C544.029607,92.3614723 545.220647,93.5685075 546.215737,95.6636172 C546.439287,96.1342601 546.725701,96.8195821 546.852349,97.1862492 C546.978997,97.5538338 547.091232,97.865455 547.101351,97.8798281 C547.111777,97.8942012 547.386539,97.8247821 547.711898,97.7263111 L548.303738,97.5471059 L548.262033,94.8229434 C548.239034,93.3247763 548.198556,91.5266088 548.172184,90.8269137 L548.12404,89.5550466 L536.46202,89.5550466 L524.8,89.5550466 L524.824839,90.0761482 L524.849678,90.596944 L525.602511,90.6908279 C526.606494,90.8162103 526.974784,90.925079 527.378953,91.2171283 C527.991953,91.6599423 528.36883,92.3104019 528.606179,93.334868 C528.975083,94.9266132 529.107864,98.5159145 529.046226,105.234884 C528.981216,112.334587 528.891673,113.811042 528.437826,115.243153 C528.064323,116.421442 527.369754,117.045908 526.222257,117.234899 C525.906405,117.286887 525.458998,117.369762 525.228088,117.419303 L524.807973,117.508906 L524.807973,117.960894 L524.807973,118.412882 L532.29307,118.412882 L539.778167,118.412882 L539.778167,117.954166 Z M640.648965,113.533365 C640.939672,112.131834 640.803825,110.572811 640.300914,109.530302 C639.596225,108.070667 638.404877,107.189626 635.45426,105.945588 C633.26261,105.021428 631.949215,104.238552 631.411038,103.534881 C630.966698,102.953841 630.822264,102.507051 630.828091,101.732127 C630.836984,100.563012 631.281631,99.6679038 632.129527,99.1094933 C632.840042,98.6422144 633.729643,98.528147 634.765824,98.7718782 C636.018196,99.066374 636.959621,99.8327358 637.810277,101.249863 C638.080438,101.700628 638.637014,102.966379 638.908095,103.74742 C638.9498,103.868521 638.998558,103.87372 639.290491,103.787481 C639.474177,103.733658 639.650809,103.663322 639.682394,103.631823 C639.713979,103.600631 639.711833,102.405522 639.677488,100.976774 L639.615544,98.3789113 L639.312264,98.2507766 C638.800153,98.0345683 637.463759,97.6718767 636.583357,97.5107145 C635.92068,97.3890018 635.338039,97.3575032 633.781774,97.3590323 C631.923456,97.3614788 631.771969,97.3734054 631.004416,97.5810509 C628.775661,98.1841098 627.122801,99.4388515 626.259265,101.18289 C625.800205,102.110109 625.641666,102.824789 625.646879,103.942221 C625.654239,105.528768 626.087846,106.700023 627.046751,107.72296 C627.871341,108.603389 628.943707,109.231831 630.770747,109.904309 C632.208337,110.434279 633.692538,111.173118 634.25494,111.640091 C634.585512,111.914403 634.845247,112.226636 635.038745,112.583211 C635.314427,113.090245 635.328533,113.157524 635.328839,113.950491 C635.328839,114.714712 635.306454,114.831532 635.063584,115.343459 C634.427892,116.681076 633.156508,117.345297 631.491382,117.209517 C629.228588,117.025113 627.636138,115.533062 626.338688,112.383211 C626.000757,111.561191 625.977758,111.544372 625.463194,111.739173 L625.227071,111.828776 L625.286255,114.766394 C625.338692,117.373126 625.361078,117.715634 625.485273,117.811047 C625.857243,118.095145 628.264777,118.665176 629.934503,118.863953 C631.230726,119.018388 633.219679,119.023587 634.199742,118.874962 C637.752932,118.337041 640.047005,116.437039 640.648965,113.533365 Z M617.581901,105.382896 L617.529156,104.352008 C617.344551,100.717446 616.452804,98.7308995 615.005708,98.7327344 C613.433497,98.7345693 612.177445,100.750474 611.654908,104.108888 C611.590818,104.521733 611.53746,105.011336 611.536847,105.197269 L611.535314,105.534272 L613.103231,105.50889 C613.965847,105.495129 615.32616,105.461184 616.126525,105.433049 L617.581901,105.382896 Z M622.437447,116.331534 C623.188747,115.622359 623.438056,115.279545 623.333487,115.100646 C623.05474,114.621746 623.066699,114.622358 622.354651,115.058444 C621.221567,115.752634 620.653339,115.944072 619.321851,116.080463 C617.766199,116.239791 616.331982,115.980157 615.005708,115.300646 C614.126533,114.849575 613.072566,113.812571 612.546043,112.879542 C611.826941,111.606451 611.437185,110.118988 611.320656,108.207976 C611.271899,107.405223 611.282325,107.205528 611.376774,107.146201 C611.441478,107.105222 614.230182,107.071889 617.619619,107.071277 L623.745323,107.069748 L623.745323,106.828464 C623.745323,106.280145 623.565011,104.805219 623.403404,104.032435 C622.75238,100.924175 621.034509,98.7076579 618.584657,97.8159136 C617.6095,97.4611731 616.687087,97.3119374 615.471514,97.3119374 C612.590814,97.3119374 610.238171,98.2538347 608.418798,100.136406 C606.967408,101.637325 606.106939,103.323566 605.581336,105.6936 C605.422796,106.407974 605.396424,106.779228 605.396424,108.27923 C605.396424,109.768223 605.42341,110.152321 605.577043,110.841007 C606.552506,115.215325 609.438113,118.096062 613.58437,118.833984 C614.634964,119.02114 616.183256,119.035513 617.22005,118.867623 C619.157791,118.554167 621.066094,117.626643 622.437447,116.331534 Z M594.394322,116.600342 C595.664479,115.461197 596.619397,113.110429 596.995047,110.197581 C597.148067,109.010729 597.127522,106.307668 596.957636,105.317147 C596.499496,102.638856 595.513913,100.878915 594.076016,100.170351 C593.479882,99.876161 593.387886,99.8556716 592.680744,99.8556716 C592.17446,99.8556716 591.739625,99.9094943 591.369495,100.018057 L590.815679,100.180749 L590.774895,103.229071 C590.72215,107.134274 590.849718,116.909822 590.95674,117.190251 C591.024817,117.36915 591.099947,117.407071 591.438492,117.433676 C592.235484,117.496062 592.367344,117.493921 592.808312,117.410435 C593.415485,117.295756 593.887424,117.054471 594.394322,116.600342 Z M600.163694,116.077405 C602.444887,113.847127 603.543319,110.699111 603.395206,106.819289 C603.318849,104.822039 602.99165,103.517756 602.16154,101.899099 C601.037043,99.7061302 599.113407,98.167596 596.929424,97.7149961 C595.291282,97.3752403 593.183655,97.6412957 591.581086,98.3902263 C591.181517,98.5767709 590.799427,98.7293705 590.73135,98.7293705 C590.623715,98.7293705 590.612062,98.1119385 590.639354,93.8648381 L590.670939,89 L590.335154,89.0672784 C590.150855,89.1039757 588.268618,89.4538232 586.152711,89.8443436 C584.036805,90.234864 582.223258,90.5737024 582.122062,90.5972498 C581.968736,90.6330297 581.942057,90.6914395 581.95831,90.9526019 C581.976709,91.243428 582.000628,91.2700335 582.309121,91.3376177 C583.369221,91.5703397 583.558119,91.6532145 583.952168,92.0593312 C584.435147,92.5565796 584.653178,93.1917486 584.796385,94.5177442 C584.91046,95.5740147 584.935605,113.77465 584.826743,116.460892 L584.762346,118.05386 L585.624655,118.237653 C588.890511,118.93429 592.145634,119.174963 594.181505,118.870375 C596.722126,118.490253 598.585351,117.620527 600.163694,116.077405 Z M558.284072,115.84927 C559.088423,114.315324 559.447821,112.047431 559.456407,108.445897 C559.467447,103.932741 558.758158,101.06026 557.260464,99.5565887 C556.631518,98.9250894 556.185645,98.7290647 555.381907,98.7302879 C553.597185,98.733346 552.464715,100.590841 552.017308,104.249255 C551.811544,105.930603 551.810624,109.936725 552.015468,111.406757 C552.64932,115.95661 554.285928,118.127867 556.571414,117.450802 C557.163868,117.275572 557.894623,116.592085 558.284072,115.84927 Z M561.651124,117.098508 C564.223024,115.182909 565.632402,112.245596 565.762423,108.529383 C565.89091,104.866076 564.782973,101.743136 562.640694,99.7296776 C560.901663,98.0951189 558.71032,97.3119374 555.877458,97.3119374 C552.87471,97.3119374 550.456443,98.2400732 548.595979,100.107354 C546.60304,102.107357 545.548766,104.897574 545.548766,108.172502 C545.548766,111.569754 546.501231,114.312265 548.34851,116.233675 C549.366905,117.292697 550.358008,117.928478 551.779652,118.432454 C552.282256,118.611048 552.65208,118.696369 553.995834,118.945605 C554.110829,118.967012 554.882369,118.970987 555.710332,118.954473 C556.831149,118.932149 557.397231,118.882302 557.926515,118.758754 C559.410409,118.413494 560.593477,117.886276 561.651124,117.098508 Z" id="Forbes"></path>
                </g>
            </g>
        </g>
    </g>
</svg>