<?xml version="1.0" encoding="UTF-8"?>
<svg width="117px" height="30px" viewBox="0 0 117 30" version="1.1" xmlns="http://www.w3.org/2000/svg" xmlns:xlink="http://www.w3.org/1999/xlink">
    <!-- Generator: sketchtool 51.3 (57544) - http://www.bohemiancoding.com/sketch -->
    <title>9CD63119-D4AC-4C81-8A86-B29A01744DDA</title>
    <desc>Created with sketchtool.</desc>
    <defs></defs>
    <g id="Design" stroke="none" stroke-width="1" fill="none" fill-rule="evenodd">
        <g id="1a-Home" transform="translate(-746.000000, -750.000000)" fill="#FFFFFF">
            <g id="Cover" transform="translate(-195.000000, -187.000000)">
                <g id="Logo" transform="translate(195.000000, 848.000000)">
                    <path d="M812.046521,103.569065 C812.996359,103.349203 813.520009,102.739838 813.864714,101.924452 L818.675418,90.4690997 C818.880124,89.9951711 819.120779,89.0208196 819.120779,89.0208196 L820.46625,89.0208196 C820.46625,89.0208196 820.704509,89.9977414 820.903823,90.4726586 L825.987934,101.955889 C826.347419,102.746758 826.743451,103.317766 827.749609,103.569065 L827.747811,103.95066 C827.199398,103.95066 825.487052,103.919223 825.095414,103.919223 C824.711964,103.919223 823.078905,103.95066 822.528694,103.95066 L822.528694,103.569065 C823.273027,103.38934 823.503097,103.016643 823.503097,102.656006 C823.503097,102.349742 823.376878,102.003934 823.224496,101.645275 L822.127669,99.1781566 L816.527497,99.1781566 L815.525933,101.659115 C815.413894,101.940269 815.281683,102.337483 815.281683,102.60539 C815.281683,103.019213 815.50037,103.349203 816.339766,103.569065 L816.339766,103.95066 C815.840682,103.95066 814.529761,103.919223 814.220205,103.919223 L812.044724,103.95066 L812.046521,103.569065 Z M821.621394,98.0084603 L817.002816,98.0084603 L819.228425,92.4925398 L821.621394,98.0084603 Z M766.440323,111.839209 C766.440323,111.503089 766.21904,111.254361 765.766689,111.157479 L765.766689,110.93999 C766.01713,110.93999 766.851134,110.973207 767.085798,110.973207 C767.288707,110.973207 768.096349,110.93999 768.347589,110.93999 L768.347589,111.157479 C767.927791,111.238543 767.707307,111.483911 767.707307,111.839209 L767.707307,116.106149 C767.707307,117.457349 768.456832,118.221132 770.024585,118.221132 C771.375448,118.221132 772.426541,117.620664 772.426541,116.206589 L772.426541,111.822601 C772.426541,111.50566 772.225429,111.254361 771.719355,111.157479 L771.719355,110.93999 C771.903491,110.93999 772.593102,110.973207 772.828565,110.973207 C773.029676,110.973207 773.753439,110.93999 773.938573,110.93999 L773.938573,111.157479 C773.450273,111.272749 773.233185,111.489051 773.233185,111.822601 L773.233185,115.971503 C773.233185,117.833606 772.138953,118.903059 769.777738,118.903059 C767.57949,118.903059 766.440323,117.913879 766.440323,116.164475 L766.440323,111.839209 Z M775.869665,118.568561 C776.381132,118.47425 776.583042,118.21781 776.583042,117.903439 L776.583042,112.005924 C776.583042,111.505699 776.314028,111.280697 775.855485,111.156728 L775.855485,110.939239 C776.114913,110.958417 776.550289,110.969687 776.772571,110.969687 C776.974481,110.969687 777.288431,110.966326 777.499928,110.939239 L782.66692,116.953803 L782.66692,111.82264 C782.66692,111.50649 782.464211,111.255191 781.959934,111.156728 L781.959934,110.939239 C782.145068,110.939239 782.809915,110.973246 783.046177,110.973246 C783.251682,110.973246 783.964061,110.939239 784.151792,110.939239 L784.151792,111.156728 C783.658898,111.271799 783.421039,111.49008 783.421039,111.82264 L783.421039,118.902901 L783.109686,118.902901 C782.913766,118.858415 782.543497,118.649823 781.979306,118.037096 L777.356334,112.706042 L777.356334,117.903439 C777.356334,118.219392 777.54047,118.4699 778.044946,118.568561 L778.044946,118.786841 C777.859812,118.786841 777.194965,118.752043 776.958704,118.752043 C776.754996,118.752043 776.057396,118.786841 775.869665,118.786841 L775.869665,118.568561 Z M816.641294,116.978142 L816.85998,116.978142 C816.975615,117.418854 817.23025,117.820616 817.587338,118.052736 C817.958805,118.311943 818.54157,118.435912 819.012295,118.435912 C820.051805,118.435912 820.71066,117.926197 820.71066,117.11951 C820.71066,116.284154 819.86667,115.850362 818.85552,115.350136 C818.103198,114.977439 816.625517,114.362143 816.625517,112.94787 C816.625517,111.630479 817.640461,110.81094 819.263734,110.81094 C820.334999,110.81094 820.837678,111.070148 821.560641,111.036931 L821.546661,112.635279 L821.325978,112.635279 C821.036792,111.693353 820.172831,111.365142 819.226588,111.365142 C818.168504,111.365142 817.772672,111.964226 817.772672,112.573393 C817.772672,113.445525 818.634836,113.885248 819.611835,114.316668 C820.71066,114.801075 821.902751,115.413011 821.902751,116.775679 C821.902751,118.065785 820.883412,119 819.020283,119 C817.911872,119 817.247026,118.686618 816.664261,118.615637 L816.641294,116.978142 Z M838.846181,115.540439 L836.742397,112.199015 C836.383511,111.612388 836.108505,111.303157 835.708079,111.156649 L835.708079,110.939951 C835.996466,110.939951 836.77515,110.974156 836.996233,110.974156 C837.196346,110.974156 838.036741,110.939951 838.340106,110.939951 L838.340106,111.156649 C838.071092,111.203706 837.945072,111.337165 837.945072,111.538046 C837.945072,111.715201 838.066898,111.943169 838.189322,112.141282 C838.30935,112.337615 839.740498,114.687684 839.740498,114.687684 L841.234756,112.14227 C841.38574,111.887215 841.492387,111.634136 841.492387,111.467263 C841.492387,111.315416 841.383743,111.189668 841.129108,111.156649 L841.129108,110.939951 C841.382145,110.939951 841.913783,110.974156 842.08314,110.974156 C842.252497,110.974156 842.863421,110.939951 843.114661,110.939951 L843.114661,111.14182 C842.539885,111.374929 842.181,111.874165 841.832699,112.452884 L839.920241,115.617352 M840.050654,115.218358 L840.050654,117.887741 C840.050654,118.152287 840.254362,118.484847 840.714502,118.568482 L840.714502,118.786959 C840.45807,118.786959 839.62047,118.751963 839.378018,118.751963 C839.17431,118.751963 838.370862,118.786959 838.080878,118.786959 L838.080878,118.568482 C838.542815,118.484847 838.764298,118.152287 838.764298,117.887741 L838.764298,115.335407 L840.050654,115.218358 Z M799.754184,110.94003 L804.687511,110.94003 C804.840092,110.94003 805.107309,110.922631 805.259691,110.857186 L805.480374,110.857186 L805.445824,112.444066 L805.227137,112.444066 C805.039407,111.94483 804.844486,111.545045 803.889655,111.545045 L801.747726,111.545045 L801.747726,114.310519 L803.398559,114.310519 C803.639214,114.310519 803.930996,114.290351 804.057215,114.260694 C804.428283,114.18042 804.591649,113.975981 804.666541,113.662796 L804.886825,113.662796 C804.871048,113.901837 804.871048,114.447537 804.871048,114.609072 C804.871048,114.771398 804.886825,115.345767 804.886825,115.605963 L804.666541,115.605963 C804.560493,115.293372 804.4161,115.055913 804.057215,114.96872 C803.930996,114.935503 803.634021,114.908416 803.398559,114.908416 L801.747726,114.908416 L801.747726,118.152366 L804.077386,118.152366 C805.094927,118.152366 805.390503,117.732414 805.643341,117.138866 L805.861228,117.189284 L805.643341,118.819267 C804.886825,118.752833 804.432876,118.752833 803.573908,118.752833 L801.112237,118.752833 C800.874977,118.752833 800.004625,118.787039 799.751587,118.787039 L799.751587,118.569549 C800.19595,118.485717 800.455378,118.268228 800.455378,117.846695 L800.455378,111.847157 C800.455378,111.475251 800.253268,111.242933 799.754184,111.160089 L799.754184,110.94003 Z M787.154067,111.889805 C787.154067,111.48745 786.911615,111.265809 786.436296,111.16438 L786.436296,110.948868 C786.700917,110.948868 787.557289,110.981886 787.806732,110.981886 C788.015632,110.981886 788.89577,110.948868 789.163786,110.948868 L789.163786,111.16438 C788.691064,111.265809 788.443219,111.466294 788.443219,111.889805 L788.443219,117.847624 C788.443219,118.249979 788.68667,118.46905 789.163786,118.568502 L789.163786,118.786979 C788.896569,118.786979 788.052579,118.752774 787.806732,118.752774 C787.594037,118.752774 786.700917,118.786979 786.435498,118.786979 L786.435498,118.568502 C786.921401,118.478738 787.154067,118.268366 787.154067,117.847624 L787.154067,111.889805 Z M824.577956,111.889805 C824.577956,111.48745 824.332707,111.265809 823.858387,111.16438 L823.858387,110.948868 C824.123008,110.948868 824.979979,110.981886 825.227624,110.981886 C825.438522,110.981886 826.318461,110.948868 826.585677,110.948868 L826.585677,111.16438 C826.113155,111.265809 825.866109,111.466294 825.866109,111.889805 L825.866109,117.847624 C825.866109,118.249979 826.10956,118.46905 826.585677,118.568502 L826.585677,118.786979 C826.320258,118.786979 825.477266,118.752774 825.227624,118.752774 C825.018724,118.752774 824.123008,118.786979 823.858387,118.786979 L823.858387,118.568502 C824.343292,118.478738 824.577956,118.268366 824.577956,117.847624 L824.577956,111.889805 Z M831.435125,110.973226 C834.140447,110.973226 834.573226,110.923402 835.122639,110.889394 L835.119044,112.50613 L834.901156,112.50613 C834.699445,111.805221 834.312201,111.622728 833.770777,111.622728 L832.087789,111.622728 L832.087789,117.847663 C832.087789,118.250018 832.330042,118.469089 832.808157,118.568541 L832.808157,118.787019 C832.544535,118.787019 831.697948,118.752814 831.450104,118.752814 C831.242002,118.752814 830.340894,118.787019 830.073877,118.787019 L830.073877,118.568541 C830.560579,118.478777 830.793245,118.268208 830.793245,117.847663 L830.793245,111.622728 L829.096877,111.622728 C828.574826,111.622728 828.171804,111.789404 827.969893,112.50613 L827.749609,112.50613 L827.745015,110.889394 C828.298023,110.923402 828.730802,110.973226 831.435125,110.973226 Z M809.855522,117.847584 C809.855522,118.249939 810.113752,118.468219 810.590868,118.568462 L810.590868,118.78694 C810.326247,118.78694 809.461287,118.752735 809.214441,118.752735 C809.002745,118.752735 808.158156,118.78694 807.891937,118.78694 L807.891937,118.568462 C808.334503,118.484827 808.595329,118.268327 808.595329,117.847584 L808.595329,111.828868 C808.595329,111.458741 808.391821,111.225632 807.893735,111.1418 L807.893735,110.9253 C808.158156,110.9253 808.994756,110.958319 809.231217,110.958319 C809.618462,110.958319 810.718685,110.893863 811.151664,110.893863 C813.047346,110.893863 814.102833,111.669904 814.102833,113.000146 C814.102833,114.045874 813.317159,114.753109 812.107294,115.041974 C812.107294,115.041974 812.383498,115.200741 812.658504,115.517682 C812.992824,115.907779 813.89553,117.190372 814.270193,117.638795 C814.644257,118.088602 815.122971,118.590409 815.636035,118.613146 L815.636035,118.788521 C815.390188,118.841707 814.995953,118.888171 814.694385,118.888171 C814.050708,118.888171 813.536845,118.662971 813.03776,118.065073 C812.605779,117.544681 811.87303,116.464946 811.441648,115.919246 C811.165844,115.571857 810.831523,115.300391 810.2196,115.200741 C810.10137,115.180772 809.98953,115.164163 809.855522,115.148544 L809.855522,117.847584 Z M809.855522,114.64911 L809.855522,111.475943 C810.126134,111.425525 810.515975,111.392308 810.78479,111.392308 C812.083528,111.392308 812.797105,112.047939 812.797105,113.105925 C812.797105,113.85389 812.329775,114.698934 810.845703,114.698934 C810.478829,114.698934 810.107761,114.683117 809.855522,114.64911 Z M791.064681,111.915093 C790.891929,111.536266 790.626509,111.258671 790.174158,111.160208 L790.174158,110.93916 C790.455355,110.93916 791.429758,110.974156 791.643851,110.974156 C791.840768,110.974156 792.692348,110.93916 792.981733,110.93916 L792.981733,111.153881 C792.724901,111.202717 792.43232,111.343294 792.43232,111.60349 C792.43232,111.789345 792.545957,112.042621 792.763845,112.519317 L794.805918,117.119411 L796.738747,112.511409 C796.891328,112.139502 797.00157,111.851428 797.00157,111.631368 C797.00157,111.387978 796.774895,111.219325 796.453755,111.153881 L796.453755,110.93916 C796.710587,110.93916 797.340085,110.974156 797.535804,110.974156 C797.714747,110.974156 798.453688,110.93916 798.735883,110.93916 L798.735883,111.160208 C798.253575,111.289317 797.959796,111.552084 797.689184,112.174498 L794.844662,118.81464 L794.200985,118.81464 L791.064681,111.915093 Z M798.357546,90.9736548 C798.028817,90.2551497 797.52434,89.7313963 796.669965,89.5437624 L796.669965,89.1255901 C797.201603,89.1255901 798.966872,89.1884642 799.372491,89.1884642 C799.746355,89.1884642 801.456104,89.1255901 802.000923,89.1255901 L802.000923,89.5332834 C801.517616,89.6268038 800.962212,89.89392 800.962212,90.3870272 C800.962212,90.7352076 801.180898,91.2164518 801.586517,92.1180432 L805.459964,100.835997 L809.125309,92.1032144 C809.411099,91.3961769 809.624393,90.8558152 809.624393,90.4376429 C809.624393,89.9732047 809.190615,89.6582408 808.583086,89.5332834 L808.583086,89.1255901 C809.067991,89.1255901 810.246901,89.1884642 810.621564,89.1884642 C810.962076,89.1884642 812.362268,89.1255901 812.894905,89.1255901 L812.894905,89.5202341 C811.981414,89.7656014 811.422416,90.285005 810.913545,91.4641917 L805.52527,104.05108 L804.305818,104.05108 L798.357546,90.9736548 Z M746.2,103.571774 C746.903591,103.412809 747.398282,103.096066 747.398282,102.306975 L747.398282,90.7675937 C747.398282,90.0099406 746.937942,89.6955699 746.2,89.5053657 L746.2,89.0958929 C746.56947,89.0958929 748.160989,89.1579762 748.548034,89.1579762 C748.994194,89.1579762 750.662403,89.0958929 751.029277,89.0958929 L751.029277,89.5053657 C750.326484,89.6633419 749.805431,89.9792944 749.805431,90.7675937 L749.805431,95.5879444 L758.488783,95.5879444 L758.488783,90.7675937 C758.488783,89.9792944 758.025846,89.6633419 757.292298,89.5053657 L757.292298,89.0958929 C757.658972,89.0958929 759.297423,89.1579762 759.742585,89.1579762 C760.127034,89.1579762 761.755699,89.0958929 762.118978,89.0958929 L762.118978,89.5053657 C761.415387,89.6633419 760.894134,89.9792944 760.894134,90.7675937 L760.894134,102.306975 C760.894134,103.064629 761.383433,103.38236 762.118978,103.571774 L762.118978,103.949612 C761.755699,103.949612 760.127034,103.918372 759.742585,103.918372 C759.297423,103.918372 757.658972,103.949612 757.292298,103.949612 L757.292298,103.571774 C757.990697,103.412809 758.488783,103.096066 758.488783,102.306975 L758.488783,96.8535336 L749.805431,96.8535336 L749.805431,102.306975 C749.805431,103.096066 750.293931,103.38236 751.029277,103.571774 L751.029277,103.949612 C750.662403,103.949612 748.994194,103.918372 748.548034,103.918372 C748.160989,103.918372 746.56947,103.949612 746.2,103.949612 L746.2,103.571774 Z M846.639108,103.571774 C847.540217,103.412809 848.036705,103.058499 848.036705,102.244101 L848.036705,90.7675937 C848.036705,89.976724 847.547207,89.6633419 846.676255,89.5053657 L846.676255,89.0958929 C847.177736,89.0958929 848.810795,89.1579762 849.263147,89.1579762 C849.9933,89.1579762 852.02998,89 853.615507,89 C858.957049,89 862.2,91.9531074 862.2,96.4434676 C862.2,100.80808 858.825638,104.042341 853.318133,104.042341 C851.73021,104.042341 849.84691,103.918372 849.109766,103.918372 C848.661809,103.918372 847.138992,103.981049 846.639108,103.981049 L846.639108,103.571774 Z M850.442056,102.811353 C850.986077,102.909223 851.991235,102.970317 852.783899,102.970317 C857.271066,102.970317 859.606917,100.296585 859.606917,96.5674365 C859.606917,92.7012701 857.142451,89.9810738 852.947065,89.9810738 C852.089894,89.9810738 851.01883,90.0447388 850.442056,90.1374683 L850.442056,102.811353 Z M786.177148,102.202126 C786.177148,102.966897 786.666446,103.382301 787.566756,103.571714 L787.566756,103.981187 C787.065075,103.981187 785.431217,103.918313 784.961291,103.918313 C784.56446,103.918313 782.961358,103.981187 782.460676,103.981187 L782.460676,103.571714 C783.296478,103.412947 783.789371,103.000904 783.789371,102.202126 L783.789371,90.8078688 C783.789371,90.1067628 783.40672,89.6634803 782.462274,89.5053064 L782.462274,89.0958336 C782.964154,89.0958336 784.547684,89.1579169 784.992047,89.1579169 C785.726594,89.1579169 787.809408,89.0367161 788.63103,89.0367161 C792.22328,89.0367161 794.223013,90.507536 794.223013,93.0232924 C794.223013,95.0065959 792.731152,96.3411884 790.441435,96.8920292 C790.441435,96.8920292 790.96069,97.191571 791.483341,97.7948069 C792.117432,98.5322929 793.866924,101.011472 794.57411,101.860668 C795.281096,102.71105 796.188396,103.660687 797.158405,103.704383 L797.158405,104.038921 C796.693671,104.138175 795.949538,104.222996 795.380753,104.222996 C794.156109,104.222996 793.183503,103.798694 792.23746,102.663796 C791.421829,101.679163 789.995074,99.585929 789.177646,98.55246 C788.655794,97.894061 788.026297,97.3809843 786.870354,97.191571 C786.642681,97.1530161 786.428587,97.1233585 786.177148,97.0954804 L786.177148,102.202126 Z M786.177148,96.1501934 C786.652467,96.212079 787.355059,96.243516 788.05186,96.243516 C790.861033,96.243516 791.743568,94.6425981 791.743568,93.2283254 C791.743568,91.2199119 790.392704,89.9810145 787.931832,89.9810145 C787.424759,89.9810145 786.686018,90.0448772 786.177148,90.137409 L786.177148,96.1501934 Z M833.523152,102.202126 C833.523152,102.966897 834.014248,103.382301 834.915556,103.571714 L834.915556,103.981187 C834.414674,103.981187 832.782414,103.918313 832.312487,103.918313 C831.908666,103.918313 830.310957,103.981187 829.808277,103.981187 L829.808277,103.571714 C830.642482,103.412947 831.136373,103.000904 831.136373,102.202126 L831.136373,90.8078688 C831.136373,90.1067628 830.750127,89.6634803 829.811073,89.5053064 L829.811073,89.0958336 C830.314552,89.0958336 831.892889,89.1579169 832.340847,89.1579169 C833.076991,89.1579169 835.158607,89.0367161 835.975236,89.0367161 C839.573678,89.0367161 841.56722,90.507536 841.56722,93.0232924 C841.56722,95.0065959 840.078953,96.3411884 837.787438,96.8920292 C837.787438,96.8920292 838.30929,97.191571 838.827747,97.7948069 C839.467829,98.5322929 841.217121,101.011472 841.921711,101.860668 C842.631494,102.71105 843.538793,103.660687 844.50341,103.704383 L844.50341,104.038921 C844.045067,104.138175 843.29654,104.222996 842.733747,104.222996 C841.506507,104.222996 840.529507,103.798694 839.58586,102.663796 C838.770229,101.679163 837.348068,99.585929 836.52365,98.55246 C836.001599,97.894061 835.374098,97.3809843 834.220552,97.191571 C833.989683,97.1530161 833.777787,97.1233585 833.523152,97.0954804 L833.523152,102.202126 Z M833.523152,96.1501934 C834.004462,96.212079 834.70286,96.243516 835.400261,96.243516 C838.210632,96.243516 839.09057,94.6425981 839.09057,93.2283254 C839.09057,91.2199119 837.738708,89.9810145 835.28243,89.9810145 C834.770763,89.9810145 834.035417,90.0448772 833.523152,90.137409 L833.523152,96.1501934 Z M764.403483,103.569065 C765.353921,103.349203 765.875972,102.739838 766.222475,101.924452 L771.031581,90.4690997 C771.236088,89.9951711 771.474146,89.0208196 771.474146,89.0208196 L772.819817,89.0208196 C772.819817,89.0208196 773.060472,89.9977414 773.260585,90.4726586 L778.342899,101.955889 C778.70538,102.746758 779.097617,103.317766 780.108169,103.569065 L780.105572,103.95066 C779.555361,103.95066 777.844813,103.919223 777.455771,103.919223 C777.068726,103.919223 775.434868,103.95066 774.885656,103.95066 L774.887453,103.569065 C775.627193,103.38934 775.860858,103.016643 775.860858,102.656006 C775.860858,102.349742 775.733041,102.003934 775.577863,101.645275 L774.48523,99.1781566 L768.885258,99.1781566 L767.884692,101.659115 C767.772653,101.940269 767.639444,102.337483 767.639444,102.60539 C767.639444,103.019213 767.85813,103.349203 768.697527,103.569065 L768.69573,103.95066 C768.198443,103.95066 766.885525,103.919223 766.577966,103.919223 L764.402684,103.95066 L764.403483,103.569065 Z M773.978356,98.0084603 L771.586985,92.4925398 L769.359778,98.0084603 L773.978356,98.0084603 Z" id="Harvard"></path>
                </g>
            </g>
        </g>
    </g>
</svg>