<?xml version="1.0" encoding="UTF-8"?>
<svg width="124px" height="27px" viewBox="0 0 124 27" version="1.1" xmlns="http://www.w3.org/2000/svg" xmlns:xlink="http://www.w3.org/1999/xlink">
    <!-- Generator: sketchtool 51.3 (57544) - http://www.bohemiancoding.com/sketch -->
    <title>C69E8B08-3216-4411-B5FE-8A98051DB49C</title>
    <desc>Created with sketchtool.</desc>
    <defs></defs>
    <g id="Design" stroke="none" stroke-width="1" fill="none" fill-rule="evenodd">
        <g id="1a-Home" transform="translate(-296.000000, -752.000000)" fill="#FFFFFF">
            <g id="Cover" transform="translate(-195.000000, -187.000000)">
                <g id="Logo" transform="translate(195.000000, 848.000000)">
                    <path d="M419.059585,105.006541 C419.059585,101.799917 417.358212,99.7748629 413.956165,99.7748629 C410.043215,99.7748629 407.321438,102.812791 407.321438,106.525505 C407.321438,110.237525 410.043215,112.769363 413.61603,112.769363 C416.507875,112.769363 418.209248,111.081703 419.39972,109.732129 L419.059585,109.394042 C418.039181,110.406222 416.84801,111.419096 414.976569,111.419096 C412.254091,111.419096 410.213283,109.562044 410.213283,106.356114 C410.213283,106.018721 410.38335,105.682022 410.38335,105.343934 L416.677942,105.343934 L419.059585,105.006541 Z M410.38335,104.500451 C410.723485,102.13731 411.914656,100.450344 413.786097,100.450344 C415.997673,100.450344 416.507875,102.644094 416.507875,104.500451 L410.38335,104.500451 Z M296.4,118 L296.4,115.80625 L419.4,115.80625 L419.4,118 L296.4,118 Z M312.902134,107.369196 L312.221164,112.431484 L301.674188,112.431484 L296.570067,112.431484 L296.570067,111.756003 C296.910202,111.756003 298.271441,111.756003 298.611576,111.419304 L298.611576,109.731644 L298.611576,95.2188737 L298.611576,93.3625165 C298.271441,93.1938199 296.910202,93.1938199 296.570067,93.1938199 L296.570067,92.5183391 L300.483017,92.5183391 L304.566033,92.5183391 L304.566033,93.1938199 C304.225898,93.1938199 302.18439,93.1938199 302.014323,93.5312131 C301.844255,93.5312131 301.844255,94.8814804 301.844255,95.2188737 L301.844255,109.562253 C301.844255,109.90034 301.844255,111.081911 302.014323,111.250607 C302.18439,111.250607 302.524525,111.419304 304.055131,111.419304 C304.736101,111.419304 308.138148,111.419304 311.20076,111.081911 C311.540895,109.90034 311.88173,108.550073 312.221164,107.369196 L312.902134,107.369196 Z M326.00173,110.575266 C325.320761,110.912659 325.151393,111.081355 324.810559,111.081355 C324.470424,111.081355 324.130289,110.743962 324.130289,109.731782 C324.130289,107.874731 324.300357,106.019068 324.300357,104.162711 C324.300357,101.29348 322.939818,99.77521 319.707138,99.77521 C316.815293,99.77521 314.43295,101.124783 314.43295,103.487924 C314.43295,104.162711 314.603017,104.331408 314.943852,104.331408 C315.113219,104.331408 316.815293,103.656621 316.815293,103.150531 C316.815293,102.812444 316.644526,102.306354 316.644526,101.96896 C316.644526,100.78739 317.835697,100.449997 319.196236,100.449997 C321.238444,100.449997 321.748646,101.631567 321.748646,103.318533 C321.748646,103.994014 321.748646,104.668801 321.578579,105.512284 C319.026869,105.681675 313.752681,106.187765 313.752681,109.899785 C313.752681,111.250746 314.43295,112.769016 316.98536,112.769016 C319.196236,112.769016 320.557475,111.756142 321.408512,111.250746 C321.748646,111.58814 322.258848,112.769016 323.109185,112.769016 C323.960222,112.769016 325.831663,111.250746 326.341865,111.081355 L326.00173,110.575266 Z M321.408512,110.575266 C320.557475,111.250746 319.537071,111.419443 318.515967,111.58814 C317.155428,111.58814 316.304391,110.912659 316.304391,109.394389 C316.304391,107.031942 319.026869,106.356461 321.578579,106.187765 L321.408512,110.575266 Z M342.333377,112.431484 L338.080293,112.431484 L333.827209,112.431484 L333.827209,111.756003 C334.167344,111.756003 336.038785,111.756003 336.378919,111.419304 L336.378919,109.731644 L336.378919,95.2188737 L336.378919,93.5312131 C336.209552,93.3625165 335.358515,93.3625165 334.848313,93.3625165 C333.997276,93.3625165 331.105431,93.3625165 330.595229,93.8686064 C330.085027,94.037303 329.91426,94.3746963 329.574125,96.9065342 L328.893855,96.9065342 L329.23399,91.6748559 L329.91426,91.6748559 C329.91426,92.1816401 330.085027,92.3496425 330.254394,92.5183391 L338.080293,92.5183391 L345.906191,92.5183391 C346.246326,92.3496425 346.246326,92.1816401 346.416393,91.6748559 L347.097363,91.6748559 L347.097363,96.9065342 L346.416393,96.9065342 C346.076259,94.3746963 346.076259,93.8686064 345.225222,93.5312131 C344.71502,93.3625165 342.503444,93.3625165 341.823175,93.3625165 C341.312973,93.3625165 339.951734,93.3625165 339.781666,93.5312131 C339.611599,93.6999098 339.611599,94.8814804 339.611599,95.2188737 L339.611599,109.731644 C339.611599,110.069037 339.611599,111.250607 339.781666,111.419304 C340.121801,111.756003 341.993242,111.756003 342.333377,111.756003 L342.333377,112.431484 Z M348.968454,103.150323 L348.968454,103.319019 L349.138521,103.319019 C349.988858,100.787876 351.009962,99.7750017 352.371201,99.7750017 C353.901807,99.7750017 354.752844,101.293966 354.752844,101.631359 C354.752844,102.137449 353.73174,102.981626 353.221538,102.981626 C352.541268,102.981626 352.030366,101.631359 351.350097,101.631359 C350.329693,101.631359 349.308588,103.656413 349.308588,105.344073 L349.308588,110.743754 C349.308588,111.250538 349.308588,111.419235 349.478656,111.587931 C349.818791,111.587931 351.180029,111.755934 351.690231,111.755934 L351.690231,112.431414 L348.118117,112.431414 L344.885437,112.431414 L344.885437,111.755934 C346.246676,111.755934 346.416743,111.587931 346.586811,111.419235 L346.586811,109.900271 L346.586811,102.306145 C346.586811,101.125269 346.586811,100.956572 346.416743,100.956572 C346.416743,100.787876 345.225572,100.787876 344.545302,100.787876 L344.885437,100.112395 L349.138521,99.9436984 L348.968454,103.150323 Z M356.96428,95.387362 C356.96428,94.5438789 357.814616,93.3623082 358.83572,93.3623082 C359.686757,93.3623082 360.196259,94.037789 360.196259,94.8812721 C360.196259,95.7247553 359.51599,96.9063259 358.325518,96.9063259 C357.645249,96.9063259 356.96428,96.2315394 356.96428,95.387362 Z M360.026192,99.9435595 C359.856825,101.293827 359.856825,102.13731 359.856825,103.656274 L359.856825,109.900132 C359.856825,110.237525 359.856825,111.419096 360.026192,111.587792 C360.196259,111.756489 361.387431,111.756489 361.728265,111.756489 L361.728265,112.431276 L358.495586,112.431276 L355.262906,112.431276 L355.262906,111.756489 C355.432973,111.756489 356.794212,111.756489 357.134347,111.587792 C357.304414,111.419096 357.304414,110.237525 357.304414,109.900132 L357.304414,102.644094 C357.304414,102.306007 357.304414,101.12513 357.134347,100.956434 C356.96428,100.787737 356.624145,100.787737 355.092839,100.787737 L355.262906,100.112256 L360.026192,99.9435595 Z M362.0684,91.5060899 L362.0684,92.0121798 C362.407835,92.0121798 363.769774,92.0121798 363.939841,92.1815706 C364.109209,92.3495731 364.109209,93.5311437 364.109209,93.868537 L364.109209,106.356253 C364.109209,108.381307 364.109209,110.743754 363.769774,112.600111 L364.109209,112.768808 L365.470447,111.755934 C366.490852,112.262718 367.682023,112.768808 369.553464,112.768808 C373.296346,112.768808 376.018824,110.237664 376.018824,106.356253 C376.018824,102.81293 373.976615,99.9436984 370.233734,99.9436984 C368.53236,99.9436984 367.341888,100.618485 366.660919,100.956572 L366.660919,96.2316782 C366.660919,94.5433235 366.831686,92.6876605 367.001754,91 L362.0684,91.5060899 Z M366.660919,101.631359 C367.341888,101.293966 368.192225,100.956572 369.213329,100.956572 C371.08477,100.956572 373.126279,102.643539 373.126279,106.356253 C373.126279,111.081841 370.403801,112.094021 368.873195,112.094021 C368.022858,112.094021 367.341888,111.755934 366.660919,111.250538 L366.660919,101.631359 Z M376.698603,100.112395 L380.951687,99.9436984 L380.78162,107.875217 C380.78162,110.237664 381.291822,111.081841 383.33333,111.081841 C384.864636,111.081841 386.395243,110.406361 387.076212,110.237664 L387.076212,101.631359 C387.076212,100.956572 387.076212,100.787876 385.204771,100.787876 L385.374838,100.112395 L389.79869,99.9436984 L389.628622,111.081841 C389.628622,111.587931 389.79869,111.755934 390.138124,111.755934 L391.329296,111.755934 L391.499363,112.431414 L387.076212,112.600111 L387.076212,111.081841 C387.076212,111.081841 387.076212,110.913145 386.906145,110.913145 L386.736077,111.081841 C385.204771,111.755934 382.993195,112.600111 381.291822,112.600111 C379.421081,112.600111 378.059142,111.755934 378.059142,108.381307 L378.399977,102.306145 C378.399977,101.293966 378.229909,101.124575 378.229909,100.956572 C378.059142,100.787876 376.86867,100.787876 376.528536,100.787876 L376.698603,100.112395 Z M396.603064,99.9435595 L396.432997,101.462523 L396.432997,101.968613 L396.603064,101.968613 L396.773131,101.799917 C398.81464,100.281647 400.175179,99.9435595 401.36705,99.9435595 C404.59903,99.9435595 405.450067,102.13731 405.450067,105.175238 L405.450067,109.900132 C405.450067,110.237525 405.450067,111.419096 405.620134,111.587792 C405.790201,111.756489 406.810606,111.756489 407.15074,111.756489 L407.15074,112.431276 L404.088828,112.431276 L401.026215,112.431276 L401.026215,111.756489 C401.537117,111.756489 402.387454,111.756489 402.727589,111.587792 C402.727589,111.419096 402.897656,110.237525 402.897656,109.900132 L402.897656,105.175238 C402.897656,102.812791 402.047319,101.462523 400.005811,101.462523 C399.154774,101.462523 397.964303,101.799917 396.603064,102.812791 L396.603064,109.900132 C396.603064,110.237525 396.603064,111.419096 396.773131,111.587792 C396.943199,111.756489 397.964303,111.756489 398.13437,111.756489 L398.13437,112.431276 L395.071758,112.431276 L392.180613,112.431276 L392.180613,111.756489 C392.34998,111.756489 393.711219,111.756489 393.711219,111.587792 C393.881286,111.419096 393.881286,110.068829 393.881286,109.900132 L393.881286,102.644094 C393.881286,101.293827 393.881286,101.12513 393.711219,100.956434 C393.541152,100.787737 392.520047,100.787737 392.009845,100.787737 L392.180613,100.112256 L396.603064,99.9435595 Z" id="La-Tribune"></path>
                </g>
            </g>
        </g>
    </g>
</svg>